<!DOCTYPE svg SYSTEM "wave-haikei.dtd">
<svg id="visual" viewBox="0 0 900 600" width="900" height="600" xmlns="http://www.w3.org/2000/svg"
    xmlns:xlink="http://www.w3.org/1999/xlink" version="1.1">
    <path
        d="M0 367L12.5 353C25 339 50 311 75 293.8C100 276.7 125 270.3 150 287.7C175 305 200 346 225 346C250 346 275 305 300 299.8C325 294.7 350 325.3 375 335.2C400 345 425 334 450 313.3C475 292.7 500 262.3 525 265.8C550 269.3 575 306.7 600 311.8C625 317 650 290 675 289C700 288 725 313 750 305.3C775 297.7 800 257.3 825 251.3C850 245.3 875 273.7 887.5 287.8L900 302L900 0L887.5 0C875 0 850 0 825 0C800 0 775 0 750 0C725 0 700 0 675 0C650 0 625 0 600 0C575 0 550 0 525 0C500 0 475 0 450 0C425 0 400 0 375 0C350 0 325 0 300 0C275 0 250 0 225 0C200 0 175 0 150 0C125 0 100 0 75 0C50 0 25 0 12.5 0L0 0Z"
        fill="#0066FF" stroke-linecap="round" stroke-linejoin="miter"></path>
</svg>